<mxfile host="app.diagrams.net" agent="Mozilla/5.0 (Windows NT 10.0; Win64; x64) AppleWebKit/537.36 (KHTML, like Gecko) Chrome/127.0.0.0 Safari/537.36 Edg/127.0.0.0" version="24.7.6" pages="2">
  <diagram name="Board Page" id="ZxoGEz_aQGKo7ODnOicD">
    <mxGraphModel grid="1" page="1" gridSize="10" guides="1" tooltips="1" connect="1" arrows="1" fold="1" pageScale="1" pageWidth="850" pageHeight="1100" math="0" shadow="0">
      <root>
        <mxCell id="0" />
        <mxCell id="1" parent="0" />
        <mxCell id="kByPwSvVH3lrWJEz-u89-1" value="" style="rounded=0;whiteSpace=wrap;html=1;" vertex="1" parent="1">
          <mxGeometry x="40" y="-40" width="660" height="460" as="geometry" />
        </mxCell>
        <mxCell id="kByPwSvVH3lrWJEz-u89-2" value="" style="rounded=0;whiteSpace=wrap;html=1;" vertex="1" parent="1">
          <mxGeometry x="40" y="30" width="100" height="390" as="geometry" />
        </mxCell>
        <mxCell id="kByPwSvVH3lrWJEz-u89-3" value="Board" style="rounded=0;whiteSpace=wrap;html=1;" vertex="1" parent="1">
          <mxGeometry x="40" y="110" width="100" height="40" as="geometry" />
        </mxCell>
        <mxCell id="kByPwSvVH3lrWJEz-u89-4" value="BackLog" style="rounded=0;whiteSpace=wrap;html=1;" vertex="1" parent="1">
          <mxGeometry x="40" y="70" width="100" height="40" as="geometry" />
        </mxCell>
        <mxCell id="kByPwSvVH3lrWJEz-u89-5" value="" style="rounded=0;whiteSpace=wrap;html=1;" vertex="1" parent="1">
          <mxGeometry x="170" y="60" width="140" height="240" as="geometry" />
        </mxCell>
        <mxCell id="kByPwSvVH3lrWJEz-u89-6" value="" style="rounded=0;whiteSpace=wrap;html=1;" vertex="1" parent="1">
          <mxGeometry x="310" y="60" width="160" height="240" as="geometry" />
        </mxCell>
        <mxCell id="kByPwSvVH3lrWJEz-u89-7" value="" style="rounded=0;whiteSpace=wrap;html=1;" vertex="1" parent="1">
          <mxGeometry x="470" y="60" width="180" height="240" as="geometry" />
        </mxCell>
        <mxCell id="kByPwSvVH3lrWJEz-u89-8" value="TO DO" style="text;html=1;align=center;verticalAlign=middle;whiteSpace=wrap;rounded=0;" vertex="1" parent="1">
          <mxGeometry x="170" y="60" width="60" height="30" as="geometry" />
        </mxCell>
        <mxCell id="kByPwSvVH3lrWJEz-u89-9" value="In Progress" style="text;html=1;align=center;verticalAlign=middle;whiteSpace=wrap;rounded=0;" vertex="1" parent="1">
          <mxGeometry x="310" y="60" width="80" height="30" as="geometry" />
        </mxCell>
        <mxCell id="kByPwSvVH3lrWJEz-u89-10" value="DONE" style="text;html=1;align=center;verticalAlign=middle;whiteSpace=wrap;rounded=0;" vertex="1" parent="1">
          <mxGeometry x="470" y="60" width="60" height="30" as="geometry" />
        </mxCell>
        <mxCell id="kByPwSvVH3lrWJEz-u89-11" value="List" style="rounded=0;whiteSpace=wrap;html=1;" vertex="1" parent="1">
          <mxGeometry x="40" y="150" width="100" height="40" as="geometry" />
        </mxCell>
        <mxCell id="kByPwSvVH3lrWJEz-u89-14" value="" style="endArrow=none;html=1;rounded=0;exitX=0.167;exitY=1;exitDx=0;exitDy=0;exitPerimeter=0;entryX=1;entryY=0;entryDx=0;entryDy=0;" edge="1" parent="1" target="kByPwSvVH3lrWJEz-u89-2">
          <mxGeometry width="50" height="50" relative="1" as="geometry">
            <mxPoint x="144.22000000000003" y="420" as="sourcePoint" />
            <mxPoint x="144" y="-40" as="targetPoint" />
            <Array as="points">
              <mxPoint x="144" y="30" />
            </Array>
          </mxGeometry>
        </mxCell>
        <mxCell id="kByPwSvVH3lrWJEz-u89-15" value="Project" style="text;html=1;align=center;verticalAlign=middle;whiteSpace=wrap;rounded=0;" vertex="1" parent="1">
          <mxGeometry x="60" y="30" width="60" height="30" as="geometry" />
        </mxCell>
        <mxCell id="S-1XVCM0H31ZVJbLeHve-2" value="Issue" style="rounded=0;whiteSpace=wrap;html=1;" vertex="1" parent="1">
          <mxGeometry x="40" y="190" width="100" height="50" as="geometry" />
        </mxCell>
      </root>
    </mxGraphModel>
  </diagram>
  <diagram id="YVKYchG2ZImRJJp1lb0Y" name="Backlog">
    <mxGraphModel grid="1" page="1" gridSize="10" guides="1" tooltips="1" connect="1" arrows="1" fold="1" pageScale="1" pageWidth="850" pageHeight="1100" math="0" shadow="0">
      <root>
        <mxCell id="0" />
        <mxCell id="1" parent="0" />
        <mxCell id="yGkN_CfSpmjNVEhND4vn-1" value="" style="rounded=0;whiteSpace=wrap;html=1;" vertex="1" parent="1">
          <mxGeometry x="40" y="-40" width="660" height="460" as="geometry" />
        </mxCell>
        <mxCell id="yGkN_CfSpmjNVEhND4vn-2" value="" style="rounded=0;whiteSpace=wrap;html=1;" vertex="1" parent="1">
          <mxGeometry x="40" y="30" width="100" height="390" as="geometry" />
        </mxCell>
        <mxCell id="yGkN_CfSpmjNVEhND4vn-3" value="Board" style="rounded=0;whiteSpace=wrap;html=1;" vertex="1" parent="1">
          <mxGeometry x="40" y="110" width="100" height="40" as="geometry" />
        </mxCell>
        <mxCell id="yGkN_CfSpmjNVEhND4vn-4" value="BackLog" style="rounded=0;whiteSpace=wrap;html=1;" vertex="1" parent="1">
          <mxGeometry x="40" y="70" width="100" height="40" as="geometry" />
        </mxCell>
        <mxCell id="yGkN_CfSpmjNVEhND4vn-11" value="List" style="rounded=0;whiteSpace=wrap;html=1;" vertex="1" parent="1">
          <mxGeometry x="40" y="150" width="100" height="40" as="geometry" />
        </mxCell>
        <mxCell id="yGkN_CfSpmjNVEhND4vn-13" value="Project" style="text;html=1;align=center;verticalAlign=middle;whiteSpace=wrap;rounded=0;" vertex="1" parent="1">
          <mxGeometry x="60" y="30" width="60" height="30" as="geometry" />
        </mxCell>
        <mxCell id="yGkN_CfSpmjNVEhND4vn-14" value="Issue" style="rounded=0;whiteSpace=wrap;html=1;" vertex="1" parent="1">
          <mxGeometry x="40" y="190" width="100" height="50" as="geometry" />
        </mxCell>
        <mxCell id="yGkN_CfSpmjNVEhND4vn-15" value="" style="rounded=0;whiteSpace=wrap;html=1;" vertex="1" parent="1">
          <mxGeometry x="140" y="110" width="10" height="310" as="geometry" />
        </mxCell>
        <mxCell id="yGkN_CfSpmjNVEhND4vn-16" value="" style="rounded=0;whiteSpace=wrap;html=1;" vertex="1" parent="1">
          <mxGeometry x="140" y="30" width="10" height="40" as="geometry" />
        </mxCell>
        <mxCell id="yGkN_CfSpmjNVEhND4vn-17" value="" style="sketch=0;aspect=fixed;pointerEvents=1;shadow=0;dashed=0;html=1;strokeColor=none;labelPosition=center;verticalLabelPosition=bottom;verticalAlign=top;align=center;fillColor=#00188D;shape=mxgraph.mscae.enterprise.filter" vertex="1" parent="1">
          <mxGeometry x="160" y="31.5" width="30" height="27" as="geometry" />
        </mxCell>
        <mxCell id="yGkN_CfSpmjNVEhND4vn-18" value="" style="rounded=0;whiteSpace=wrap;html=1;" vertex="1" parent="1">
          <mxGeometry x="160" y="70" width="530" height="340" as="geometry" />
        </mxCell>
        <mxCell id="yGkN_CfSpmjNVEhND4vn-20" value="" style="line;strokeWidth=2;html=1;" vertex="1" parent="1">
          <mxGeometry x="160" y="100" width="530" height="10" as="geometry" />
        </mxCell>
        <mxCell id="yGkN_CfSpmjNVEhND4vn-21" value="" style="line;strokeWidth=2;html=1;" vertex="1" parent="1">
          <mxGeometry x="160" y="130" width="530" height="10" as="geometry" />
        </mxCell>
        <mxCell id="yGkN_CfSpmjNVEhND4vn-22" value="" style="line;strokeWidth=2;html=1;" vertex="1" parent="1">
          <mxGeometry x="160" y="160" width="530" height="10" as="geometry" />
        </mxCell>
        <mxCell id="yGkN_CfSpmjNVEhND4vn-23" value="" style="line;strokeWidth=2;html=1;" vertex="1" parent="1">
          <mxGeometry x="160" y="190" width="530" height="10" as="geometry" />
        </mxCell>
        <mxCell id="yGkN_CfSpmjNVEhND4vn-24" value="" style="line;strokeWidth=2;html=1;" vertex="1" parent="1">
          <mxGeometry x="160" y="220" width="530" height="10" as="geometry" />
        </mxCell>
        <mxCell id="yGkN_CfSpmjNVEhND4vn-25" value="" style="line;strokeWidth=2;html=1;" vertex="1" parent="1">
          <mxGeometry x="160" y="250" width="530" height="10" as="geometry" />
        </mxCell>
        <mxCell id="yGkN_CfSpmjNVEhND4vn-26" value="" style="line;strokeWidth=2;html=1;" vertex="1" parent="1">
          <mxGeometry x="160" y="280" width="530" height="10" as="geometry" />
        </mxCell>
        <mxCell id="yGkN_CfSpmjNVEhND4vn-27" value="" style="line;strokeWidth=2;html=1;" vertex="1" parent="1">
          <mxGeometry x="160" y="310" width="530" height="10" as="geometry" />
        </mxCell>
        <mxCell id="yGkN_CfSpmjNVEhND4vn-28" value="" style="line;strokeWidth=2;html=1;" vertex="1" parent="1">
          <mxGeometry x="160" y="340" width="530" height="10" as="geometry" />
        </mxCell>
        <mxCell id="yGkN_CfSpmjNVEhND4vn-29" value="" style="line;strokeWidth=2;html=1;" vertex="1" parent="1">
          <mxGeometry x="160" y="370" width="530" height="10" as="geometry" />
        </mxCell>
        <mxCell id="yGkN_CfSpmjNVEhND4vn-30" value="" style="line;strokeWidth=2;direction=south;html=1;" vertex="1" parent="1">
          <mxGeometry x="290" y="70" width="10" height="340" as="geometry" />
        </mxCell>
        <mxCell id="yGkN_CfSpmjNVEhND4vn-31" value="" style="line;strokeWidth=2;direction=south;html=1;" vertex="1" parent="1">
          <mxGeometry x="435" y="70" width="10" height="340" as="geometry" />
        </mxCell>
        <mxCell id="yGkN_CfSpmjNVEhND4vn-32" value="Task" style="text;html=1;align=center;verticalAlign=middle;whiteSpace=wrap;rounded=0;" vertex="1" parent="1">
          <mxGeometry x="170" y="70" width="110" height="30" as="geometry" />
        </mxCell>
        <mxCell id="yGkN_CfSpmjNVEhND4vn-33" value="Todo/Progress/Done" style="text;html=1;align=center;verticalAlign=middle;whiteSpace=wrap;rounded=0;" vertex="1" parent="1">
          <mxGeometry x="305" y="70" width="130" height="30" as="geometry" />
        </mxCell>
        <mxCell id="yGkN_CfSpmjNVEhND4vn-34" value="Assignee" style="text;html=1;align=center;verticalAlign=middle;whiteSpace=wrap;rounded=0;" vertex="1" parent="1">
          <mxGeometry x="445" y="70" width="95" height="30" as="geometry" />
        </mxCell>
        <mxCell id="yGkN_CfSpmjNVEhND4vn-35" value="" style="line;strokeWidth=2;direction=south;html=1;" vertex="1" parent="1">
          <mxGeometry x="540" y="70" width="10" height="340" as="geometry" />
        </mxCell>
        <mxCell id="yGkN_CfSpmjNVEhND4vn-36" value="Date" style="text;html=1;align=center;verticalAlign=middle;whiteSpace=wrap;rounded=0;" vertex="1" parent="1">
          <mxGeometry x="570" y="70" width="95" height="30" as="geometry" />
        </mxCell>
        <mxCell id="yGkN_CfSpmjNVEhND4vn-40" value="" style="endArrow=classic;html=1;rounded=0;" edge="1" parent="1" target="yGkN_CfSpmjNVEhND4vn-41">
          <mxGeometry width="50" height="50" relative="1" as="geometry">
            <mxPoint x="200" y="20" as="sourcePoint" />
            <mxPoint x="300" y="-70" as="targetPoint" />
          </mxGeometry>
        </mxCell>
        <mxCell id="yGkN_CfSpmjNVEhND4vn-47" value="" style="group" connectable="0" vertex="1" parent="1">
          <mxGeometry x="230" y="-25" width="120" height="140" as="geometry" />
        </mxCell>
        <mxCell id="yGkN_CfSpmjNVEhND4vn-41" value="" style="rounded=0;whiteSpace=wrap;html=1;" vertex="1" parent="yGkN_CfSpmjNVEhND4vn-47">
          <mxGeometry y="-5" width="120" height="90" as="geometry" />
        </mxCell>
        <mxCell id="yGkN_CfSpmjNVEhND4vn-42" value="" style="line;strokeWidth=2;html=1;" vertex="1" parent="yGkN_CfSpmjNVEhND4vn-47">
          <mxGeometry y="20" width="120" height="10" as="geometry" />
        </mxCell>
        <mxCell id="yGkN_CfSpmjNVEhND4vn-43" value="" style="line;strokeWidth=2;html=1;" vertex="1" parent="yGkN_CfSpmjNVEhND4vn-47">
          <mxGeometry y="50" width="120" height="10" as="geometry" />
        </mxCell>
        <mxCell id="yGkN_CfSpmjNVEhND4vn-51" value="" style="group" connectable="0" vertex="1" parent="yGkN_CfSpmjNVEhND4vn-47">
          <mxGeometry width="110" height="85" as="geometry" />
        </mxCell>
        <mxCell id="yGkN_CfSpmjNVEhND4vn-48" value="Assignee" style="text;html=1;align=center;verticalAlign=middle;whiteSpace=wrap;rounded=0;" vertex="1" parent="yGkN_CfSpmjNVEhND4vn-51">
          <mxGeometry width="110" height="30" as="geometry" />
        </mxCell>
        <mxCell id="yGkN_CfSpmjNVEhND4vn-49" value="Date" style="text;html=1;align=center;verticalAlign=middle;whiteSpace=wrap;rounded=0;" vertex="1" parent="yGkN_CfSpmjNVEhND4vn-51">
          <mxGeometry y="25" width="110" height="30" as="geometry" />
        </mxCell>
        <mxCell id="yGkN_CfSpmjNVEhND4vn-50" value="Completion" style="text;html=1;align=center;verticalAlign=middle;whiteSpace=wrap;rounded=0;" vertex="1" parent="yGkN_CfSpmjNVEhND4vn-51">
          <mxGeometry y="55" width="110" height="30" as="geometry" />
        </mxCell>
      </root>
    </mxGraphModel>
  </diagram>
</mxfile>
